<?xml version="1.0" encoding="UTF-8"?>
<svg id="Layer_1" xmlns="http://www.w3.org/2000/svg" version="1.1" viewBox="0 0 200 200">
  <!-- Generator: Adobe Illustrator 30.1.0, SVG Export Plug-In . SVG Version: 2.1.1 Build 136)  -->
  <defs>
    <style>
      .st0 {
        fill: #fff;
      }

      .st1 {
        fill: red;
      }
    </style>
  </defs>
  <rect class="st1" x="6.17" y="6.17" width="187.67" height="187.67" rx="38.23" ry="38.23"/>
  <path class="st0" d="M152.81,112.02c-12.1-4.31-34.74-.84-34.74-.84-8.03-6.95-16.37-21.66-16.37-21.66,2.18-3.57,10.7-38.64,0-45.57-10.7-6.94-18.82,1.19-18.82,12.88s6.74,26.75,6.74,26.75c-2.58,12.89-17.07,40.66-17.07,40.66-20.73,7.91-34.02,19.05-33.9,27.67.12,8.63,13.18,12.7,25.16,3.95,11.98-8.75,21.8-28.63,21.8-28.63l30.31-7.79c16.41,16.17,34.62,14.85,40.49,12.46,5.87-2.4,8.51-15.57-3.59-19.89ZM46.04,153.26c-6.84-6.84,22.56-20.45,22.56-20.45,0,0-15.73,27.29-22.56,20.45ZM93.05,47.8c7.58,0,3.43,20.66,0,28.22,0,0-7.58-28.22,0-28.22ZM90.7,117.87s6.45-12.99,7.69-19.17c0,0,6.8,9.89,10.78,14.05,0,0-10.6,2.39-18.46,5.12ZM149.73,122.25c-2,10.34-21.9-.67-27.12-5,0,0,29.12-5.33,27.12,5Z"/>
</svg>