<?xml version="1.0" encoding="UTF-8"?>
<svg id="Layer_1" xmlns="http://www.w3.org/2000/svg" version="1.1" viewBox="0 0 200 200">
  <!-- Generator: Adobe Illustrator 30.1.0, SVG Export Plug-In . SVG Version: 2.1.1 Build 136)  -->
  <defs>
    <style>
      .st0 {
        fill: #00005a;
      }

      .st1 {
        fill: #a1a2ff;
      }
    </style>
  </defs>
  <rect class="st0" x="6.17" y="6.17" width="187.67" height="187.67" rx="38.23" ry="38.23"/>
  <g>
    <path class="st1" d="M76.56,60.42h-17.88l-25.5,81.24h17.88l6.41-20.41h26.64l6.41,20.41h17.88l-25.5-81.24h-6.33ZM61.84,107.32l8.95-28.51,8.95,28.51h-17.9Z"/>
    <path class="st1" d="M170.01,113.27s1.73-23.84-14.61-33.07c-16.34-9.23-39.42.14-42.88,20.83-3.46,20.7,8.32,40.62,28.77,40.62,10.23,0,16.27-1.14,20.8-3.98v-11.92s-8.08,2.2-18.46,2.12c-15.22-.12-14.28-14.16-14.28-14.16l40.65-.45ZM140.99,91.13c10.63,0,11.08,11.79,11.08,11.79h-22.21s.5-11.79,11.13-11.79Z"/>
  </g>
</svg>