<?xml version="1.0" encoding="UTF-8"?>
<svg id="Layer_1" xmlns="http://www.w3.org/2000/svg" version="1.1" viewBox="0 0 200 200">
  <!-- Generator: Adobe Illustrator 30.1.0, SVG Export Plug-In . SVG Version: 2.1.1 Build 136)  -->
  <defs>
    <style>
      .st0 {
        fill: #fff;
      }

      .st1 {
        fill: #000c20;
      }
    </style>
  </defs>
  <rect class="st1" x="6.17" y="6.17" width="187.67" height="187.67" rx="38.23" ry="38.23"/>
  <g>
    <path class="st0" d="M96.09,98.48c3.68-4.15,5.93-9.6,5.93-15.58,0-13.01-10.54-23.55-23.55-23.55h-19.26s-7.7,0-7.7,0v81.3h30.21c13.01,0,23.55-10.54,23.55-23.55,0-7.58-3.6-14.31-9.17-18.62ZM88.57,82.9h0c0,5.58-4.52,10.1-10.1,10.1h-11.56v-20.2h11.56c5.58,0,10.1,4.52,10.1,10.1ZM91.81,117.1c0,5.58-4.52,10.1-10.1,10.1h-14.8v-20.2h14.8c5.58,0,10.1,4.52,10.1,10.1h0Z"/>
    <path class="st0" d="M136.37,85.44v-5.97h-15.41v61.19h15.41v-41.26c2.99-2.37,9.31-5.96,19.67-5.34v-17.55s-11.75,0-19.67,8.94Z"/>
  </g>
</svg>