<?xml version="1.0" encoding="UTF-8"?>
<svg id="Layer_1" xmlns="http://www.w3.org/2000/svg" version="1.1" viewBox="0 0 200 200">
  <!-- Generator: Adobe Illustrator 30.1.0, SVG Export Plug-In . SVG Version: 2.1.1 Build 136)  -->
  <defs>
    <style>
      .st0 {
        fill: #00a8f9;
      }

      .st1 {
        fill: #00213b;
      }
    </style>
  </defs>
  <rect class="st1" x="5.85" y="6.02" width="187.67" height="187.67" rx="38.23" ry="38.23"/>
  <g>
    <path class="st0" d="M78.59,59.76h-30.2v81.27h15.41v-26.26h14.79c15.19,0,27.5-12.31,27.5-27.5h0c0-15.19-12.31-27.5-27.5-27.5ZM78.59,99.06h-14.79v-23.59h14.79c6.51,0,11.79,5.28,11.79,11.79s-5.28,11.79-11.79,11.79Z"/>
    <path class="st0" d="M140.91,102.49c-8.93-3.18-10.37-4.83-10.37-7.53,0-3.21,3.02-5.29,7.7-5.29,5.84,0,10.12,2.15,11.69,3.08l3.55,2.1,5.23-14.24-2.33-1.29c-4.87-2.7-11.39-4.25-17.87-4.25-15.08,0-26.03,8.9-26.03,21.16,0,6.3,3.4,14.95,19.58,20.34,9.33,3.22,10.07,5.61,10.07,8.41,0,5.46-6.62,6.05-9.46,6.05-5.16,0-10.85-2.05-13.96-3.94l-3.62-2.21-5.18,14.74,2.3,1.27c5.34,2.94,12.7,4.62,20.18,4.62,16.97,0,27.93-8.46,27.93-21.54s-10.37-18.25-19.41-21.47Z"/>
  </g>
</svg>