<?xml version="1.0" encoding="UTF-8"?>
<svg id="Layer_1" xmlns="http://www.w3.org/2000/svg" version="1.1" viewBox="0 0 200 200">
  <!-- Generator: Adobe Illustrator 30.1.0, SVG Export Plug-In . SVG Version: 2.1.1 Build 136)  -->
  <defs>
    <style>
      .st0 {
        fill: #fff;
      }

      .st1 {
        fill: #000c20;
      }
    </style>
  </defs>
  <rect class="st1" x="6.17" y="6.17" width="187.67" height="187.67" rx="30.83" ry="30.83"/>
  <path class="st0" d="M81.37,86.23c-10.58-4.01-12.28-6.08-12.28-9.48,0-4.05,3.58-6.66,9.11-6.66,6.92,0,11.99,2.71,13.84,3.88l4.2,2.64,6.2-17.93-2.75-1.62c-5.77-3.4-13.48-5.35-21.17-5.35-17.86,0-30.82,11.21-30.82,26.65,0,7.93,4.03,18.82,23.18,25.61,11.04,4.06,11.92,7.07,11.92,10.59,0,6.88-7.84,7.62-11.21,7.62-6.11,0-12.85-2.58-16.53-4.97l-4.29-2.79-6.13,18.56,2.73,1.6c6.33,3.7,15.04,5.82,23.89,5.82,20.09,0,33.08-10.65,33.08-27.13s-12.28-22.98-22.98-27.04Z"/>
  <path class="st0" d="M118.83,87.81v34.56s-.9,15.59,15.13,15.59c6.01,0,10.89-1.91,14.62-4.29v-9.16s-12.17,3.4-12.17-2.53v-34.17h12.17v-11.86h-12.35v-17.89l-16.57,3.07v14.47h-9.15v12.17l8.31.05Z"/>
</svg>